<?xml version="1.0" standalone="no"?><!DOCTYPE svg PUBLIC "-//W3C//DTD SVG 1.1//EN" "http://www.w3.org/Graphics/SVG/1.1/DTD/svg11.dtd"><svg t="1685716735201" class="icon" viewBox="0 0 1024 1024" version="1.1" xmlns="http://www.w3.org/2000/svg" p-id="3181" xmlns:xlink="http://www.w3.org/1999/xlink" width="200" height="200"><path d="M121.151527 144.403436c38.759849 9.047965 76.371702 24.035906 110.12157 44.095828 33.817868 20.007922 63.663751 44.817825 88.989652 72.115718 25.373901 27.327893 46.385819 57.079777 63.777751 87.919657 17.383932 30.875879 31.213878 62.869754 41.997836 95.627626 10.979957 33.35187-7.153972 69.289729-40.505842 80.269686-29.843883 9.825962-61.759759-3.661986-76.009703-30.50388l-0.749997-1.429995c-24.911903-46.823817-58.325772-88.341655-96.359624-116.869543-18.989926-14.295944-39.023848-25.313901-59.465767-32.781872-20.45992-7.493971-41.325839-11.475955-62.531756-12.465952-52.319796-2.44199-92.753638-46.837817-90.309647-99.155612 2.44199-52.319796 46.835817-92.753638 99.155612-90.309647a95.519627 95.519627 0 0 1 16.627935 2.245991l5.26198 1.241995z" fill="#FFA6BB" p-id="3182"></path><path d="M121.151527 144.403436c38.759849 9.047965 76.371702 24.035906 110.12157 44.095828 33.817868 20.007922 63.663751 44.817825 88.989652 72.115718 25.373901 27.327893 46.385819 57.079777 63.777751 87.919657 17.383932 30.875879 31.213878 62.869754 41.997836 95.627626 10.979957 33.35187-7.153972 69.289729-40.505842 80.269686-29.843883 9.825962-61.759759-3.661986-76.009703-30.50388l-0.749997-1.429995c-24.911903-46.823817-58.325772-88.341655-96.359624-116.869543-18.989926-14.295944-39.023848-25.313901-59.465767-32.781872-20.45992-7.493971-41.325839-11.475955-62.531756-12.465952-52.319796-2.44199-92.753638-46.837817-90.309647-99.155612 2.44199-52.319796 46.835817-92.753638 99.155612-90.309647a95.519627 95.519627 0 0 1 16.627935 2.245991l5.26198 1.241995z" opacity=".1" p-id="3183"></path><path d="M21.565916 245.003043c-6.747974 5.363979-12.499951 11.601955-17.393932 18.493928 11.419955 37.177855 45.163824 64.967746 86.245663 66.885738 21.205917 0.989996 42.071836 4.971981 62.531756 12.465952 20.44192 7.465971 40.473842 18.483928 59.465767 32.781872 38.031851 28.527889 71.447721 70.045726 96.359624 116.869543l0.749997 1.429995c14.249944 26.841895 46.16582 40.329842 76.009703 30.50388a63.88175 63.88175 0 0 0 10.15596-4.365983C263.924969 235.971078 75.953703 201.779212 21.565916 245.003043z" fill="#FFDAB5" p-id="3184"></path><path d="M902.852473 144.403436c-38.761849 9.047965-76.373702 24.037906-110.12357 44.095828-33.817868 20.007922-63.663751 44.817825-88.989652 72.115718-25.373901 27.327893-46.385819 57.079777-63.777751 87.919657-17.383932 30.875879-31.213878 62.869754-41.997836 95.627626-10.979957 33.35187 7.153972 69.289729 40.505842 80.269686 29.843883 9.825962 61.759759-3.661986 76.009703-30.50388l0.749997-1.429995c24.911903-46.823817 58.327772-88.341655 96.359624-116.869543 18.991926-14.295944 39.023848-25.313901 59.465767-32.781872 20.45992-7.493971 41.325839-11.475955 62.531756-12.465952 52.319796-2.44199 92.753638-46.837817 90.309647-99.155612-2.44199-52.319796-46.835817-92.753638-99.155612-90.309647a95.519627 95.519627 0 0 0-16.627935 2.245991l-5.25998 1.241995z" fill="#FFA6BB" p-id="3185"></path><path d="M902.852473 144.403436c-38.761849 9.047965-76.373702 24.037906-110.12357 44.095828-33.817868 20.007922-63.663751 44.817825-88.989652 72.115718-25.373901 27.327893-46.385819 57.079777-63.777751 87.919657-17.383932 30.875879-31.213878 62.869754-41.997836 95.627626-10.979957 33.35187 7.153972 69.289729 40.505842 80.269686 29.843883 9.825962 61.759759-3.661986 76.009703-30.50388l0.749997-1.429995c24.911903-46.823817 58.327772-88.341655 96.359624-116.869543 18.991926-14.295944 39.023848-25.313901 59.465767-32.781872 20.45992-7.493971 41.325839-11.475955 62.531756-12.465952 52.319796-2.44199 92.753638-46.837817 90.309647-99.155612-2.44199-52.319796-46.835817-92.753638-99.155612-90.309647a95.519627 95.519627 0 0 0-16.627935 2.245991l-5.25998 1.241995z" opacity=".1" p-id="3186"></path><path d="M1002.438084 245.003043c6.747974 5.363979 12.499951 11.601955 17.393932 18.493928-11.419955 37.177855-45.163824 64.967746-86.245663 66.885738-21.205917 0.989996-42.071836 4.971981-62.531756 12.465952-20.44192 7.465971-40.473842 18.483928-59.465767 32.781872-38.031851 28.527889-71.447721 70.045726-96.359624 116.869543l-0.749997 1.429995c-14.249944 26.841895-46.16582 40.329842-76.009703 30.50388a63.88175 63.88175 0 0 1-10.15596-4.365983c131.765485-284.09689 319.734751-318.288757 374.124538-275.064925z" fill="#FFDAB5" p-id="3187"></path><path d="M597.963664 444.162265c10.785958-32.759872 24.613904-64.751747 41.997836-95.629626a494.284069 494.284069 0 0 1 16.535936-27.167894c45.681822 12.949949 86.317663 32.437873 120.569529 58.117773a305.660806 305.660806 0 0 1 15.16394 12.159952c-30.009883 27.111894-56.41378 62.159757-77.001699 100.855606l-0.749997 1.429995c-14.249944 26.841895-46.16582 40.329842-76.009703 30.50388-33.35187-10.979957-51.487799-46.917817-40.505842-80.269686zM426.040336 444.162265c-10.785958-32.759872-24.613904-64.751747-41.997836-95.629626a493.050074 493.050074 0 0 0-16.535936-27.167894c-45.681822 12.949949-86.317663 32.437873-120.569529 58.117773a304.73681 304.73681 0 0 0-15.16394 12.159952c30.009883 27.111894 56.41378 62.159757 77.001699 100.855606l0.749997 1.429995c14.249944 26.841895 46.16582 40.329842 76.009703 30.50388 33.35187-10.979957 51.485799-46.917817 40.505842-80.269686z" opacity=".1" p-id="3188"></path><path d="M852.930668 621.671572c0-188.289264-152.639404-279.15291-340.928668-279.15291S171.073332 433.382307 171.073332 621.671572s152.639404 261.514978 340.928668 261.514978 340.928668-73.225714 340.928668-261.514978z" fill="#FFA6BB" p-id="3189"></path><path d="M304.984809 628.837544a55.797782 44.439826 0 1 0 111.595564 0 55.797782 44.439826 0 1 0-111.595564 0Z" fill="#FF6E6E" p-id="3190"></path><path d="M607.423627 628.837544a55.797782 44.439826 0 1 0 111.595564 0 55.797782 44.439826 0 1 0-111.595564 0Z" fill="#FF6E6E" p-id="3191"></path><path d="M370.108554 591.37569a14.999941 14.999941 0 0 1-14.999941-14.999941v-23.949907c0-8.283968 6.713974-14.999941 14.999941-14.999941s14.999941 6.715974 14.999942 14.999941v23.949907a14.999941 14.999941 0 0 1-14.999942 14.999941zM512.002 679.553345c-22.325913 0-40.425842-18.099929-40.425842-40.425842V609.737618a11.035957 11.035957 0 0 1 11.035957-11.035957h58.77977a11.035957 11.035957 0 0 1 11.035957 11.035957v29.389885c0 22.327913-18.099929 40.425842-40.425842 40.425842zM653.895446 591.37569a14.999941 14.999941 0 0 1-14.999942-14.999941v-23.949907a14.999941 14.999941 0 0 1 29.999883 0v23.949907a14.999941 14.999941 0 0 1-14.999941 14.999941zM525.889946 557.561822a54.839786 54.839786 0 0 0-27.777892 0 16.131937 16.131937 0 0 0-9.247964 6.529975 8.443967 8.443967 0 0 0 3.551986 12.463951l13.341948 5.933977a15.35994 15.35994 0 0 0 12.485952 0l13.341947-5.933977a8.443967 8.443967 0 0 0 3.551987-12.463951 16.101937 16.101937 0 0 0-9.247964-6.529975z" fill="#414B58" p-id="3192"></path><path d="M405.084418 353.31062c-135.911469 29.103886-234.011086 117.421541-234.011086 268.362952 0 188.289264 152.639404 261.514978 340.928668 261.514978 71.181722 0 137.257464-10.475959 191.92925-33.665868C193.257245 875.804579 309.578791 420.622357 405.084418 353.31062z" opacity=".1" p-id="3193"></path></svg>